<?xml version="1.0" standalone="no"?>
<!DOCTYPE svg PUBLIC "-//W3C//DTD SVG 20010904//EN"
 "http://www.w3.org/TR/2001/REC-SVG-20010904/DTD/svg10.dtd">
<svg version="1.0" xmlns="http://www.w3.org/2000/svg"
 width="1000.000000pt" height="1080.000000pt" viewBox="0 0 1000.000000 1080.000000"
 preserveAspectRatio="xMidYMid meet">

<g transform="translate(0.000000,1080.000000) scale(0.100000,-0.100000)"
fill="#000000" stroke="none">
<path d="M2155 7504 c-346 -77 -608 -339 -680 -680 -21 -101 -19 -261 5 -364
28 -115 103 -263 201 -393 44 -59 165 -194 268 -300 103 -106 195 -209 204
-229 33 -69 38 -142 35 -451 -3 -275 -1 -305 15 -330 19 -30 62 -45 86 -30 36
22 39 52 43 413 3 322 1 360 -15 407 -33 95 -95 174 -286 363 -315 314 -420
499 -421 741 0 209 100 419 265 552 81 65 133 93 240 129 79 27 104 31 205 32
140 1 204 -15 347 -84 l101 -50 104 50 c212 101 383 114 581 45 104 -36 173
-81 267 -175 144 -143 210 -303 210 -504 0 -207 -65 -357 -232 -533 -76 -80
-87 -107 -64 -152 18 -33 51 -47 91 -37 50 13 199 218 275 380 73 155 85 208
84 366 0 117 -4 147 -28 225 -53 175 -152 322 -291 432 -149 118 -309 179
-497 190 -158 9 -276 -15 -445 -88 l-52 -23 -83 36 c-128 56 -189 69 -333 74
-94 2 -149 -1 -200 -12z"/>
<path d="M2200 7080 c-115 -22 -192 -130 -176 -246 9 -70 35 -114 83 -143 l42
-26 1 -180 c0 -205 9 -257 67 -375 68 -139 243 -281 375 -305 l37 -7 3 -562
c3 -625 0 -594 74 -676 51 -56 105 -82 185 -88 107 -7 202 45 255 140 l29 53
5 347 5 346 31 38 c47 59 78 77 136 82 l54 4 30 -49 c76 -123 258 -131 352
-17 81 98 60 244 -46 319 -40 27 -51 30 -121 30 -68 0 -83 -3 -120 -28 -23
-16 -51 -43 -62 -61 -18 -31 -24 -34 -85 -39 -129 -10 -244 -92 -303 -217
l-26 -55 -5 -347 -5 -346 -24 -26 c-32 -34 -80 -42 -120 -22 -62 33 -61 20
-61 619 l0 545 75 17 c41 9 102 30 137 47 87 43 204 162 246 248 53 109 62
164 62 370 l1 185 44 27 c64 39 98 96 103 172 5 75 -16 125 -74 175 -46 41
-76 52 -141 53 -103 1 -190 -69 -212 -172 -15 -71 6 -136 65 -194 25 -25 50
-46 55 -46 13 0 11 -303 -2 -376 -34 -182 -180 -326 -363 -356 -184 -30 -376
74 -459 249 l-32 68 -3 201 -3 201 30 13 c66 27 121 115 121 194 0 132 -131
242 -260 216z m84 -104 c94 -39 97 -169 5 -216 -21 -11 -46 -20 -56 -20 -29 0
-81 37 -103 72 -35 56 -10 131 53 162 40 19 59 20 101 2z m1063 -30 c58 -63
40 -151 -37 -191 -39 -20 -66 -19 -107 6 -82 51 -83 158 0 210 48 30 103 20
144 -25z m317 -1280 c49 -20 76 -61 76 -112 0 -36 -6 -51 -34 -82 -31 -34 -39
-37 -86 -37 -47 0 -55 3 -86 37 -28 31 -34 46 -34 82 0 51 27 91 74 112 40 17
49 17 90 0z"/>
<path d="M6922 6176 c-88 -29 -162 -101 -190 -185 -21 -59 -15 -160 12 -216
88 -187 343 -226 480 -75 20 22 36 45 36 50 0 6 -25 10 -55 10 -41 0 -63 -6
-91 -25 -97 -66 -228 -31 -281 75 -43 83 -19 182 59 243 61 49 170 50 227 2
23 -20 40 -25 85 -25 31 0 56 4 56 10 0 20 -70 87 -121 114 -62 34 -152 43
-217 22z"/>
<path d="M4160 5900 l0 -270 121 0 c147 0 186 11 249 67 121 109 115 299 -14
409 -56 48 -119 64 -248 64 l-108 0 0 -270z m253 166 c39 -17 92 -71 106 -109
27 -70 0 -165 -56 -205 -37 -26 -97 -42 -160 -42 l-53 0 0 185 0 185 65 0 c36
0 80 -6 98 -14z"/>
<path d="M5710 6090 c0 -73 -2 -80 -20 -80 -17 0 -20 -7 -20 -40 0 -33 3 -40
20 -40 19 0 20 -7 20 -150 l0 -150 40 0 39 0 3 148 3 147 45 5 c44 5 45 6 45
40 0 34 -1 35 -45 40 l-45 5 -3 78 -3 77 -39 0 -40 0 0 -80z"/>
<path d="M4811 6004 c-74 -37 -104 -86 -109 -175 -4 -60 -1 -74 22 -114 15
-25 46 -58 68 -73 36 -23 52 -27 114 -27 64 0 77 3 116 30 144 102 114 318
-51 374 -54 18 -103 13 -160 -15z m168 -83 c46 -25 65 -105 37 -160 -62 -118
-251 -60 -233 71 13 93 107 136 196 89z"/>
<path d="M5330 6017 c-19 -6 -53 -30 -76 -52 -131 -131 -36 -354 150 -355 66
0 130 32 168 84 l30 41 -46 3 c-34 2 -53 -2 -71 -16 -107 -84 -252 38 -190
158 31 59 136 81 188 39 20 -15 38 -19 72 -17 l45 3 -26 38 c-48 71 -154 103
-244 74z"/>
<path d="M6066 6015 c-51 -18 -110 -77 -126 -125 -7 -21 -11 -63 -8 -94 16
-189 258 -253 375 -99 123 164 -46 388 -241 318z m140 -91 c86 -57 64 -197
-35 -224 -46 -12 -83 -1 -123 37 -77 73 -20 203 88 203 25 0 56 -7 70 -16z"/>
<path d="M6586 6002 c-51 -26 -56 -27 -56 -10 0 15 -8 18 -45 18 l-45 0 0
-190 0 -190 45 0 45 0 0 110 c0 108 0 110 31 145 17 19 48 40 70 46 21 7 39
18 39 24 0 7 3 27 6 44 6 26 4 31 -13 31 -11 0 -46 -13 -77 -28z"/>
<path d="M7445 6011 c-111 -52 -154 -173 -101 -288 34 -73 87 -106 177 -111
49 -3 77 0 101 12 20 11 34 13 36 6 2 -5 24 -10 48 -10 l44 0 0 111 c0 128
-11 173 -53 225 -58 70 -168 94 -252 55z m153 -91 c46 -28 68 -82 53 -131 -33
-111 -173 -121 -227 -17 -19 37 -12 85 18 123 38 48 101 58 156 25z"/>
<path d="M8000 6014 c-19 -8 -42 -22 -52 -31 -17 -15 -18 -15 -18 5 0 19 -6
22 -45 22 l-45 0 0 -195 0 -195 45 0 45 0 0 105 c0 76 4 114 15 136 17 32 69
69 97 69 22 0 38 30 38 69 0 26 -4 31 -22 31 -13 -1 -39 -8 -58 -16z"/>
<path d="M8245 6013 c-140 -73 -166 -242 -55 -350 44 -42 88 -56 165 -51 75 5
130 37 163 97 31 54 28 61 -22 61 -37 0 -50 -6 -79 -35 -30 -30 -42 -35 -81
-35 -39 0 -52 5 -80 33 -19 17 -37 42 -41 55 l-6 22 171 0 172 0 -7 37 c-14
75 -55 132 -117 164 -46 24 -140 25 -183 2z m166 -92 c16 -16 29 -33 29 -38 0
-4 -47 -8 -105 -8 -116 0 -126 6 -74 49 45 38 110 37 150 -3z"/>
<path d="M4657 5483 c-4 -3 -7 -60 -7 -125 0 -98 3 -118 15 -118 13 0 15 21
15 125 0 114 -5 137 -23 118z"/>
<path d="M5550 5365 c0 -103 3 -125 15 -125 10 0 15 16 17 61 2 50 7 64 24 76
35 23 54 -5 54 -78 0 -46 3 -59 15 -59 24 0 21 131 -3 153 -21 19 -45 21 -73
7 -18 -10 -19 -7 -19 40 0 38 -4 50 -15 50 -13 0 -15 -21 -15 -125z"/>
<path d="M4730 5455 c0 -8 9 -15 20 -15 11 0 20 7 20 15 0 8 -9 15 -20 15 -11
0 -20 -7 -20 -15z"/>
<path d="M5250 5455 c0 -8 9 -15 20 -15 11 0 20 7 20 15 0 8 -9 15 -20 15 -11
0 -20 -7 -20 -15z"/>
<path d="M4180 5430 c0 -11 -4 -20 -10 -20 -5 0 -10 -7 -10 -15 0 -8 5 -15 10
-15 6 0 10 -23 10 -51 0 -66 13 -89 50 -89 17 0 30 5 30 10 0 6 -9 10 -19 10
-23 0 -31 19 -31 75 0 37 3 44 22 47 32 5 35 28 4 28 -19 0 -26 5 -26 20 0 11
-7 20 -15 20 -8 0 -15 -9 -15 -20z"/>
<path d="M4303 5403 c-26 -10 -12 -24 17 -18 19 4 36 2 45 -5 23 -19 18 -28
-17 -35 -42 -9 -68 -32 -68 -60 0 -33 21 -45 78 -44 l52 2 0 61 c0 77 -18 106
-63 105 -18 0 -38 -3 -44 -6z m77 -102 c0 -40 -61 -56 -68 -17 -5 22 13 36 46
36 15 0 22 -6 22 -19z"/>
<path d="M4472 5387 c-29 -31 -30 -99 -2 -127 22 -22 69 -27 88 -8 9 9 12 7
12 -9 0 -33 -28 -55 -66 -51 -18 2 -35 -1 -36 -7 -2 -5 18 -11 44 -13 37 -2
51 1 67 17 18 18 21 33 21 121 0 89 -9 124 -23 88 -4 -10 -7 -10 -18 0 -21 19
-64 14 -87 -11z m82 -13 c29 -29 12 -114 -22 -114 -25 0 -52 34 -52 65 0 24 7
39 22 49 28 20 33 20 52 0z"/>
<path d="M4737 5404 c-4 -4 -7 -43 -7 -86 0 -72 2 -78 20 -78 20 0 21 5 18 82
-3 75 -12 100 -31 82z"/>
<path d="M4820 5405 c-1 -3 -1 -40 -2 -82 0 -64 3 -79 16 -81 13 -3 16 7 16
62 0 68 14 90 50 78 24 -8 30 -24 30 -84 0 -45 3 -58 15 -58 21 0 21 117 -1
148 -17 25 -62 30 -83 10 -11 -10 -14 -10 -18 0 -4 12 -22 17 -23 7z"/>
<path d="M5022 5387 c-29 -31 -30 -99 -2 -127 24 -24 110 -29 110 -7 0 9 -9
12 -29 9 -37 -5 -71 13 -71 38 0 18 7 20 55 20 54 0 55 1 55 28 0 59 -76 84
-118 39z m76 -9 c24 -24 13 -38 -28 -38 -43 0 -55 20 -22 39 23 14 36 13 50
-1z"/>
<path d="M5260 5325 c0 -69 3 -85 15 -85 12 0 15 16 15 85 0 69 -3 85 -15 85
-12 0 -15 -16 -15 -85z"/>
<path d="M5346 5395 c-27 -27 -19 -53 24 -80 50 -31 46 -60 -6 -52 -25 4 -34
2 -34 -9 0 -10 12 -14 38 -14 77 0 94 67 25 96 -45 19 -42 50 5 47 42 -1 37
21 -5 25 -18 2 -37 -3 -47 -13z"/>
<path d="M5755 5385 c-32 -31 -34 -91 -4 -124 17 -18 30 -21 67 -19 26 2 45 7
42 13 -3 5 -19 8 -36 6 -33 -2 -64 19 -64 45 0 11 15 14 60 14 52 0 60 3 60
19 0 10 -9 30 -21 45 -27 34 -71 35 -104 1z m79 -11 c26 -25 19 -34 -29 -34
-25 0 -45 4 -45 9 0 14 30 41 45 41 7 0 21 -7 29 -16z"/>
<path d="M5917 5403 c-4 -3 -7 -42 -7 -85 0 -71 2 -78 20 -78 16 0 19 8 22 63
3 53 6 63 26 72 24 11 30 35 8 35 -8 0 -22 -7 -30 -16 -15 -14 -16 -14 -16 0
0 17 -12 21 -23 9z"/>
<path d="M6052 5403 c-17 -7 -42 -57 -42 -86 0 -13 9 -36 21 -51 17 -22 28
-26 70 -26 33 0 49 4 49 13 0 9 -12 11 -39 9 -31 -3 -42 0 -54 19 -23 32 -13
39 49 39 51 0 54 1 54 25 0 47 -57 79 -108 58z m72 -35 c14 -24 5 -30 -43 -26
-41 3 -41 3 -25 26 18 26 51 26 68 0z"/>
<path d="M0 400 l0 -400 5000 0 5000 0 0 400 0 400 -5000 0 -5000 0 0 -400z
m2192 123 c23 -20 23 -57 1 -74 -15 -11 -16 -11 -5 1 27 31 11 72 -33 83 -19
4 -19 5 -1 6 11 0 28 -6 38 -16z m-69 -8 c-3 -9 -8 -14 -10 -11 -3 3 -2 9 2
15 9 16 15 13 8 -4z m-1760 -114 c22 -61 43 -108 47 -104 4 4 24 56 45 116 21
59 42 107 47 107 11 0 9 -5 -42 -149 -23 -64 -44 -107 -53 -109 -15 -3 -17 0
-67 143 -15 44 -31 88 -36 99 -5 13 -3 17 6 14 8 -2 32 -55 53 -117z m517 89
c0 -23 4 -30 20 -30 11 0 20 -4 20 -10 0 -5 -10 -10 -21 -10 -20 0 -21 -4 -17
-71 3 -55 8 -74 23 -85 23 -17 14 -29 -13 -15 -11 6 -22 25 -26 42 -10 51 -7
209 4 209 6 0 10 -13 10 -30z m515 16 c25 -11 33 -19 29 -30 -7 -19 -5 -19
-40 -1 -36 18 -55 19 -78 2 -28 -21 -9 -45 49 -62 87 -25 108 -74 54 -127 -29
-29 -33 -30 -90 -25 -68 6 -72 8 -64 29 5 13 12 14 40 5 50 -15 100 1 100 33
0 16 -8 28 -25 36 -87 40 -105 51 -108 67 -14 70 53 106 133 73z m105 -16 c0
-25 4 -30 25 -30 16 0 25 -6 25 -15 0 -9 -9 -15 -25 -15 -24 0 -25 -3 -25 -60
0 -55 2 -62 25 -72 14 -6 25 -15 25 -20 0 -18 -31 -20 -55 -4 -24 16 -25 20
-25 131 0 96 3 115 15 115 10 0 15 -10 15 -30z m482 -32 l3 -62 36 32 c20 18
45 32 55 32 14 0 9 -9 -21 -40 l-39 -40 42 -60 c40 -57 41 -60 20 -60 -16 0
-32 14 -53 45 -16 25 -33 45 -37 45 -5 0 -8 -20 -8 -45 0 -38 -3 -45 -20 -45
-19 0 -20 7 -20 130 0 122 1 130 20 130 16 0 19 -8 22 -62z m193 30 c1 -20 -2
-24 -11 -17 -8 7 -14 6 -17 -3 -3 -7 -6 2 -6 20 -1 27 3 33 17 30 11 -2 17
-13 17 -30z m-44 -35 c13 -16 12 -17 -3 -4 -17 13 -22 21 -14 21 2 0 10 -8 17
-17z m-1502 -19 c12 -15 21 -40 21 -55 0 -29 0 -29 -65 -29 -72 0 -83 -12 -44
-51 17 -17 30 -20 65 -16 43 4 59 -5 28 -17 -45 -17 -106 3 -123 41 -45 98 56
206 118 127z m191 16 c17 -11 10 -13 -40 -10 -47 2 -75 -28 -75 -80 0 -55 26
-80 82 -80 27 0 42 -4 38 -10 -9 -15 -78 -12 -102 5 -50 35 -50 135 0 170 24
17 74 20 97 5z m265 -13 c20 -16 28 -35 32 -69 5 -42 3 -50 -25 -78 -41 -41
-83 -41 -124 0 -28 28 -30 36 -25 78 9 82 84 119 142 69z m85 7 c0 -14 2 -14
22 0 24 17 38 20 38 9 0 -5 -14 -16 -30 -25 -29 -17 -30 -19 -30 -93 0 -43 -4
-75 -10 -75 -6 0 -10 40 -10 100 0 60 4 100 10 100 6 0 10 -7 10 -16z m537 1
c30 -21 44 -75 32 -120 -25 -88 -143 -88 -168 0 -20 72 20 135 84 135 17 0 40
-7 52 -15z m198 -5 c0 -10 -8 -14 -27 -12 -58 6 -91 -42 -67 -100 11 -28 36
-40 74 -35 12 1 20 -4 20 -13 0 -19 -48 -25 -85 -10 -63 26 -68 148 -6 179 31
15 91 9 91 -9z m5384 -83 c8 -26 17 -47 21 -47 4 0 13 21 21 47 8 25 20 48 26
50 8 3 4 -21 -11 -64 -13 -38 -29 -68 -36 -68 -7 0 -23 30 -36 68 -15 43 -19
67 -11 64 6 -2 18 -25 26 -50z m638 38 c2 -6 -9 -11 -23 -10 -39 0 -42 -23 -5
-36 34 -12 49 -43 31 -64 -13 -16 -38 -19 -64 -9 -27 10 -18 22 17 20 38 -1
43 19 8 37 -36 18 -48 42 -31 62 14 17 61 17 67 0z m333 -20 c0 -35 16 -47 26
-20 4 8 13 15 22 15 13 0 13 -3 -2 -19 -16 -18 -16 -21 -1 -50 19 -38 8 -40
-22 -3 l-22 27 -1 -27 c0 -16 -4 -28 -10 -28 -6 0 -10 30 -10 70 0 40 4 70 10
70 6 0 10 -16 10 -35z m580 32 c0 -4 -34 -104 -45 -136 -3 -8 -8 -11 -11 -8
-8 7 38 147 48 147 4 0 8 -2 8 -3z m100 -16 c-5 -11 -15 -23 -21 -26 -6 -5 -2
-13 11 -22 42 -29 8 -82 -43 -69 -37 9 -34 27 3 20 22 -5 31 -2 36 11 6 16 -3
28 -31 39 -6 2 -5 9 3 17 18 19 15 29 -8 29 -11 0 -20 5 -20 10 0 6 18 10 40
10 37 0 40 -2 30 -19z m114 -3 c44 -63 -17 -154 -68 -102 -9 9 -16 32 -16 54
0 64 52 94 84 48z m86 -38 c0 -33 4 -60 10 -60 6 0 10 -4 10 -10 0 -5 -13 -10
-30 -10 -16 0 -30 5 -30 10 0 6 5 10 10 10 6 0 10 20 10 45 0 38 -2 43 -17 38
-16 -6 -16 -4 1 15 29 34 36 27 36 -38z m124 38 c44 -63 -17 -154 -68 -102 -9
9 -16 32 -16 54 0 64 52 94 84 48z m116 3 c-5 -11 -15 -23 -20 -26 -6 -4 -1
-14 12 -25 20 -15 21 -21 10 -44 -11 -26 -34 -32 -66 -20 -28 11 -17 24 14 18
22 -5 31 -2 36 11 6 16 -3 28 -31 39 -6 2 -5 9 3 17 18 19 15 29 -8 29 -11 0
-20 5 -20 10 0 6 18 10 40 10 37 0 40 -2 30 -19z m120 14 c0 -6 -60 -127 -66
-134 -2 -2 -7 -2 -10 1 -3 3 6 29 20 57 14 28 26 53 26 56 0 3 -13 5 -30 5
-16 0 -30 5 -30 10 0 6 20 10 45 10 25 0 45 -2 45 -5z m100 -5 c0 -5 -11 -10
-25 -10 -14 0 -29 -8 -35 -20 -10 -19 -9 -20 12 -15 36 9 65 -27 50 -60 -22
-47 -92 -20 -92 35 0 37 35 80 66 80 13 0 24 -4 24 -10z m100 -9 c-5 -11 -15
-23 -20 -26 -6 -4 -1 -14 12 -25 20 -15 21 -21 10 -44 -12 -27 -44 -34 -72
-16 -15 10 -13 11 30 13 31 2 39 33 11 42 -23 7 -27 20 -11 30 17 10 11 25
-10 25 -11 0 -20 5 -20 10 0 6 18 10 40 10 37 0 40 -2 30 -19z m-2070 -26 c9
-10 9 -15 1 -15 -15 0 -14 -57 2 -63 6 -2 9 -7 6 -11 -15 -17 -37 8 -41 47 -7
58 5 74 32 42z m360 0 c9 -10 9 -15 1 -15 -15 0 -14 -57 2 -63 6 -2 9 -7 6
-11 -15 -17 -37 8 -41 47 -7 58 5 74 32 42z m-532 -7 c23 -23 13 -38 -24 -38
-46 0 -41 -23 7 -30 27 -4 30 -7 16 -13 -28 -11 -44 -9 -61 9 -32 31 -14 84
29 84 12 0 26 -5 33 -12z m109 5 c14 -6 10 -9 -17 -13 -29 -4 -35 -9 -35 -30
0 -21 5 -26 33 -28 36 -4 34 -22 -3 -22 -28 0 -55 24 -55 50 0 22 25 50 45 50
7 0 22 -3 32 -7z m177 -9 c31 -30 9 -84 -34 -84 -24 0 -50 26 -50 50 0 24 26
50 50 50 10 0 26 -7 34 -16z m86 6 c0 -4 -7 -10 -15 -14 -9 -3 -15 -19 -15
-41 0 -19 -4 -35 -10 -35 -5 0 -10 22 -10 49 0 45 2 49 25 49 14 0 25 -4 25
-8z m274 -6 c31 -30 9 -84 -34 -84 -24 0 -50 26 -50 50 0 24 26 50 50 50 10 0
26 -7 34 -16z m121 7 c3 -5 -9 -11 -27 -13 -28 -2 -33 -7 -33 -28 0 -21 5 -26
33 -28 36 -4 34 -22 -3 -22 -28 0 -55 24 -55 50 0 37 67 69 85 41z m250 0 c3
-5 -9 -11 -27 -13 -28 -2 -33 -7 -33 -28 0 -21 5 -26 33 -28 36 -4 34 -22 -3
-22 -28 0 -55 24 -55 50 0 37 67 69 85 41z m99 -7 c21 -20 20 -43 -1 -66 -20
-22 -46 -23 -67 -2 -31 30 -9 84 34 84 10 0 26 -7 34 -16z m113 4 c7 -5 14 -5
18 2 10 16 42 12 49 -6 10 -25 7 -84 -4 -84 -5 0 -10 18 -10 41 0 33 -3 40
-17 37 -13 -2 -19 -14 -21 -41 -4 -50 -22 -47 -22 4 0 36 -2 40 -22 37 -19 -2
-24 -10 -26 -40 -5 -55 -22 -46 -22 10 0 48 0 49 33 49 17 0 37 -4 44 -9z
m-327 -78 c0 -5 -4 -10 -10 -10 -5 0 -10 5 -10 10 0 6 5 10 10 10 6 0 10 -4
10 -10z"/>
<path d="M2150 500 c0 -5 5 -10 10 -10 6 0 10 5 10 10 0 6 -4 10 -10 10 -5 0
-10 -4 -10 -10z"/>
<path d="M536 418 c-28 -39 -21 -48 39 -48 59 0 67 9 45 51 -15 27 -64 25 -84
-3z"/>
<path d="M986 424 c-50 -50 -21 -144 44 -144 48 0 80 50 66 104 -13 53 -75 75
-110 40z"/>
<path d="M1616 408 c-32 -46 -8 -118 39 -118 28 0 55 34 55 70 0 36 -27 70
-55 70 -13 0 -31 -10 -39 -22z"/>
<path d="M8994 365 c-9 -38 3 -75 26 -75 13 0 22 9 26 25 9 38 -3 75 -26 75
-13 0 -22 -9 -26 -25z"/>
<path d="M9204 365 c-9 -38 3 -75 26 -75 13 0 22 9 26 25 9 38 -3 75 -26 75
-13 0 -22 -9 -26 -25z"/>
<path d="M9534 325 c-4 -9 -2 -21 4 -27 16 -16 47 -5 47 17 0 26 -42 34 -51
10z"/>
<path d="M7405 340 c-4 -6 5 -10 19 -10 14 0 26 5 26 10 0 6 -9 10 -19 10 -11
0 -23 -4 -26 -10z"/>
<path d="M7684 336 c-10 -26 4 -48 28 -44 17 2 23 10 23 28 0 18 -6 26 -23 28
-13 2 -25 -3 -28 -12z"/>
<path d="M8044 336 c-10 -26 4 -48 28 -44 17 2 23 10 23 28 0 18 -6 26 -23 28
-13 2 -25 -3 -28 -12z"/>
<path d="M8514 336 c-10 -26 4 -48 28 -44 17 2 23 10 23 28 0 18 -6 26 -23 28
-13 2 -25 -3 -28 -12z"/>
</g>
</svg>
